{
    "asset" : {
        "generator" : "Khronos glTF Blender I/O v0.9.36",
        "version" : "2.0"
    },
    "scene" : 0,
    "scenes" : [
        {
            "name" : "Scene",
            "nodes" : [
                0
            ]
        }
    ],
    "nodes" : [
        {
            "mesh" : 0,
            "name" : "glpower"
        }
    ],
    "meshes" : [
        {
            "name" : "glpower",
            "primitives" : [
                {
                    "attributes" : {
                        "POSITION" : 0,
                        "NORMAL" : 1
                    },
                    "indices" : 2
                }
            ]
        }
    ],
    "accessors" : [
        {
            "bufferView" : 0,
            "componentType" : 5126,
            "count" : 4815,
            "max" : [
                1.2190855741500854,
                0.32446712255477905,
                0.12999999523162842
            ],
            "min" : [
                -1.0682073831558228,
                -0.3305743932723999,
                -0.1300000250339508
            ],
            "type" : "VEC3"
        },
        {
            "bufferView" : 1,
            "componentType" : 5126,
            "count" : 4815,
            "type" : "VEC3"
        },
        {
            "bufferView" : 2,
            "componentType" : 5123,
            "count" : 11844,
            "type" : "SCALAR"
        }
    ],
    "bufferViews" : [
        {
            "buffer" : 0,
            "byteLength" : 57780,
            "byteOffset" : 0
        },
        {
            "buffer" : 0,
            "byteLength" : 57780,
            "byteOffset" : 57780
        },
        {
            "buffer" : 0,
            "byteLength" : 23688,
            "byteOffset" : 115560
        }
    ],
    "buffers" : [
        {
            "byteLength" : 139248,
            "uri" : "data:application/octet-stream;base64,"
        }
    ]
}
